<?xml version="1.0" standalone="no"?>
<!DOCTYPE svg PUBLIC "-//W3C//DTD SVG 20010904//EN"
 "http://www.w3.org/TR/2001/REC-SVG-20010904/DTD/svg10.dtd">
<svg version="1.0" xmlns="http://www.w3.org/2000/svg"
 width="512.000000pt" height="512.000000pt" viewBox="0 0 512.000000 512.000000"
 preserveAspectRatio="xMidYMid meet">

<g transform="translate(0.000000,512.000000) scale(0.100000,-0.100000)"
fill="#000000" stroke="none">
<path d="M1080 4775 l0 -325 -405 0 -405 0 -2 -2132 -3 -2133 -123 -3 -122 -3
0 -79 0 -80 2540 0 2540 0 0 80 0 79 -122 3 -123 3 -3 2133 -2 2132 -405 0
-405 0 0 325 0 325 -1480 0 -1480 0 0 -325z m2790 -2215 l0 -2380 -367 2 -368
3 -3 738 -2 737 -570 0 -570 0 -2 -737 -3 -738 -367 -3 -368 -2 0 2380 0 2380
1310 0 1310 0 0 -2380z m-2790 -330 l0 -2050 -325 0 -325 0 0 2050 0 2050 325
0 325 0 0 -2050z m3610 0 l0 -2050 -325 0 -325 0 0 2050 0 2050 325 0 325 0 0
-2050z m-1720 -1395 l0 -655 -410 0 -410 0 0 655 0 655 410 0 410 0 0 -655z"/>
<path d="M1580 4280 l0 -330 325 0 325 0 0 330 0 330 -325 0 -325 0 0 -330z
m490 0 l0 -160 -165 0 -165 0 0 160 0 160 165 0 165 0 0 -160z"/>
<path d="M2890 4280 l0 -330 325 0 325 0 0 330 0 330 -325 0 -325 0 0 -330z
m490 0 l0 -160 -165 0 -165 0 0 160 0 160 165 0 165 0 0 -160z"/>
<path d="M1580 3300 l0 -330 325 0 325 0 0 330 0 330 -325 0 -325 0 0 -330z
m488 -2 l-3 -163 -162 -3 -163 -2 0 165 0 165 165 0 165 0 -2 -162z"/>
<path d="M2890 3300 l0 -330 325 0 325 0 0 330 0 330 -325 0 -325 0 0 -330z
m490 -5 l0 -165 -165 0 -165 0 0 165 0 165 165 0 165 0 0 -165z"/>
<path d="M1580 2315 l0 -325 325 0 325 0 0 325 0 325 -325 0 -325 0 0 -325z
m490 0 l0 -165 -165 0 -165 0 0 165 0 165 165 0 165 0 0 -165z"/>
<path d="M2890 2315 l0 -325 325 0 325 0 0 325 0 325 -325 0 -325 0 0 -325z
m490 0 l0 -165 -165 0 -165 0 0 165 0 165 165 0 165 0 0 -165z"/>
<path d="M672 3788 l3 -163 80 0 80 0 3 163 2 162 -85 0 -85 0 2 -162z"/>
<path d="M672 2808 l3 -163 83 -3 82 -3 0 166 0 165 -85 0 -85 0 2 -162z"/>
<path d="M677 1904 c-4 -4 -7 -79 -7 -166 l0 -158 85 0 85 0 -2 163 -3 162
-75 3 c-42 1 -79 0 -83 -4z"/>
<path d="M674 827 c-2 -7 -3 -80 -2 -162 l3 -150 83 -3 82 -3 0 166 0 165 -80
0 c-57 0 -82 -4 -86 -13z"/>
<path d="M4282 3788 l3 -163 80 0 80 0 3 163 2 162 -85 0 -85 0 2 -162z"/>
<path d="M4280 2805 l0 -166 83 3 82 3 3 163 2 162 -85 0 -85 0 0 -165z"/>
<path d="M4287 1904 c-4 -4 -7 -79 -7 -166 l0 -158 85 0 85 0 -2 163 -3 162
-75 3 c-42 1 -79 0 -83 -4z"/>
<path d="M4280 675 l0 -166 83 3 82 3 0 160 0 160 -82 3 -83 3 0 -166z"/>
</g>
</svg>
